<?xml version="1.0" encoding="UTF-8" standalone="no"?>
<!-- Created with Inkscape (http://www.inkscape.org/) -->

<svg
   version="1.1"
   id="svg1050"
   width="452"
   height="452"
   viewBox="0 0 452 452"
   sodipodi:docname="help.svg"
   inkscape:version="1.2 (dc2aedaf03, 2022-05-15)"
   xmlns:inkscape="http://www.inkscape.org/namespaces/inkscape"
   xmlns:sodipodi="http://sodipodi.sourceforge.net/DTD/sodipodi-0.dtd"
   xmlns="http://www.w3.org/2000/svg"
   xmlns:svg="http://www.w3.org/2000/svg">
  <defs
     id="defs1054" />
  <sodipodi:namedview
     id="namedview1052"
     pagecolor="#ffffff"
     bordercolor="#000000"
     borderopacity="0.25"
     inkscape:showpageshadow="2"
     inkscape:pageopacity="0.0"
     inkscape:pagecheckerboard="0"
     inkscape:deskcolor="#d1d1d1"
     showgrid="false"
     inkscape:zoom="1.5862832"
     inkscape:cx="195.74059"
     inkscape:cy="259.41144"
     inkscape:window-width="1280"
     inkscape:window-height="962"
     inkscape:window-x="-8"
     inkscape:window-y="-8"
     inkscape:window-maximized="1"
     inkscape:current-layer="g1056" />
  <g
     inkscape:groupmode="layer"
     inkscape:label="Image"
     id="g1056">
    <circle
       style="fill:#ffffff;stroke:#000000;stroke-width:1.00157"
       id="path2455"
       cx="215.59833"
       cy="220.01115"
       r="171.47002" />
    <circle
       style="fill:#ffffff;stroke:#000000;stroke-width:1.00157"
       id="path2457"
       cx="215.59833"
       cy="220.01115"
       r="146.56905" />
    <text
       xml:space="preserve"
       style="font-weight:bold;font-size:333.333px;font-family:Arial;-inkscape-font-specification:'Arial, Bold';fill:#ffffff;stroke:#000000;stroke-width:1.00157"
       x="112.73384"
       y="340.53513"
       id="text2513"><tspan
         sodipodi:role="line"
         id="tspan2511"
         x="112.73384"
         y="340.53513">?</tspan></text>
    <path
       style="fill:#ffffff;stroke:#000000;stroke-width:0.631397"
       d="m 194.16457,317.40865 v -22.06416 h 22.06416 22.06416 v 22.06416 22.06415 h -22.06416 -22.06416 z"
       id="path2619" />
    <path
       style="fill:#ffffff;stroke:#000000;stroke-width:0.631397"
       d="m 194.16635,269.97071 c 0.004,-18.30009 3.23444,-30.83468 10.60146,-41.13389 4.0476,-5.6586 14.05251,-15.38888 27.22103,-26.47381 18.53698,-15.60397 21.94194,-19.48542 24.29964,-27.70009 0.80916,-2.81927 1.00043,-5.26665 0.77593,-9.92875 -0.26865,-5.57921 -0.53295,-6.66273 -2.68961,-11.02642 -4.59132,-9.28992 -13.6011,-16.20577 -24.59237,-18.87697 -6.48556,-1.57618 -19.25097,-1.42598 -25.72081,0.30263 -15.68639,4.1911 -26.03313,15.27782 -31.41525,33.66201 -1.42593,4.87068 -1.43934,4.88894 -3.35282,4.56357 -1.05664,-0.17967 -9.97553,-1.30955 -19.81976,-2.51084 -9.84423,-1.20129 -18.05571,-2.34128 -18.24774,-2.5333 -0.61075,-0.61076 1.09873,-10.52676 2.71645,-15.75697 3.23221,-10.44999 9.2017,-19.98645 17.97142,-28.70992 10.94164,-10.88395 24.31063,-17.87271 41.18627,-21.53053 8.92095,-1.93363 33.90108,-2.09058 43.61669,-0.27405 18.14366,3.39233 32.50867,10.67387 44.44094,22.52688 12.56241,12.47895 18.93454,26.7387 18.96704,42.44506 0.0255,12.30523 -2.31531,19.94193 -9.38445,30.61648 -4.50281,6.79932 -18.74478,21.16716 -33.32431,33.61882 -11.61897,9.92319 -16.85593,15.33248 -19.43931,20.07899 -2.00463,3.68317 -3.20343,9.8945 -3.78026,19.58671 l -0.44085,7.40725 h -19.79555 -19.79556 l 0.002,-8.35286 z"
       id="path2621" />
    <path
       style="fill:#ffffff;stroke:#000000;stroke-width:0.631397"
       d="M 196.05579,389.5345 C 120.48227,380.5085 60.042022,323.07704 47.358171,248.23921 38.204424,194.22987 55.825381,138.88248 94.566206,99.958875 168.23714,25.94035 289.78821,34.46619 352.20531,118.03021 c 30.84119,41.29018 41.36763,93.70982 28.83399,143.58764 -15.83168,63.0024 -66.78088,111.95253 -130.47812,125.35862 -16.58214,3.48997 -38.20545,4.50479 -54.50539,2.55803 z m 43.81311,-24.15722 c 57.1269,-10.15003 101.37785,-49.70586 117.51113,-105.04296 3.68455,-12.63799 5.35752,-25.22958 5.35752,-40.32316 0,-24.29503 -4.85051,-45.01364 -15.49395,-66.18124 -21.44134,-42.64239 -61.34291,-71.696636 -109.26592,-79.561717 -9.83881,-1.614736 -34.9199,-1.614736 -44.75871,0 -47.92536,7.865468 -87.80026,36.899467 -109.269002,79.561717 -25.872414,51.41316 -19.427533,112.94935 16.570722,158.21852 22.70027,28.54645 56.80417,48.30957 92.38308,53.53576 10.3319,1.51765 10.23178,1.51242 25.21617,1.31964 11.06623,-0.14237 15.84697,-0.47793 21.74896,-1.52656 z"
       id="path2623" />
  </g>
</svg>
